<svg xmlns="http://www.w3.org/2000/svg" xmlns:xlink="http://www.w3.org/1999/xlink" width="750" height="500" viewBox="0 0 3000 2000">
<defs>
  <clipPath id="clip070">
    <rect x="0" y="0" width="3000" height="2000"></rect>
  </clipPath>
</defs>
<path clip-path="url(#clip070)" d="M0 2000 L3000 2000 L3000 0 L0 0  Z" fill="#ffffff" fill-rule="evenodd" fill-opacity="1"></path>
<defs>
  <clipPath id="clip071">
    <rect x="600" y="0" width="2101" height="2000"></rect>
  </clipPath>
</defs>
<path clip-path="url(#clip070)" d="M209.964 1819.18 L2952.76 1819.18 L2952.76 123.472 L209.964 123.472  Z" fill="#ffffff" fill-rule="evenodd" fill-opacity="1"></path>
<defs>
  <clipPath id="clip072">
    <rect x="209" y="123" width="2744" height="1697"></rect>
  </clipPath>
</defs>
<polyline clip-path="url(#clip072)" style="stroke:#000000; stroke-linecap:round; stroke-linejoin:round; stroke-width:2; stroke-opacity:0.1; fill:none" points="209.964,1819.18 209.964,123.472 "></polyline>
<polyline clip-path="url(#clip072)" style="stroke:#000000; stroke-linecap:round; stroke-linejoin:round; stroke-width:2; stroke-opacity:0.1; fill:none" points="667.096,1819.18 667.096,123.472 "></polyline>
<polyline clip-path="url(#clip072)" style="stroke:#000000; stroke-linecap:round; stroke-linejoin:round; stroke-width:2; stroke-opacity:0.1; fill:none" points="1124.23,1819.18 1124.23,123.472 "></polyline>
<polyline clip-path="url(#clip072)" style="stroke:#000000; stroke-linecap:round; stroke-linejoin:round; stroke-width:2; stroke-opacity:0.1; fill:none" points="1581.36,1819.18 1581.36,123.472 "></polyline>
<polyline clip-path="url(#clip072)" style="stroke:#000000; stroke-linecap:round; stroke-linejoin:round; stroke-width:2; stroke-opacity:0.1; fill:none" points="2038.49,1819.18 2038.49,123.472 "></polyline>
<polyline clip-path="url(#clip072)" style="stroke:#000000; stroke-linecap:round; stroke-linejoin:round; stroke-width:2; stroke-opacity:0.1; fill:none" points="2495.62,1819.18 2495.62,123.472 "></polyline>
<polyline clip-path="url(#clip072)" style="stroke:#000000; stroke-linecap:round; stroke-linejoin:round; stroke-width:2; stroke-opacity:0.1; fill:none" points="2952.76,1819.18 2952.76,123.472 "></polyline>
<polyline clip-path="url(#clip070)" style="stroke:#000000; stroke-linecap:round; stroke-linejoin:round; stroke-width:4; stroke-opacity:1; fill:none" points="209.964,1819.18 2952.76,1819.18 "></polyline>
<polyline clip-path="url(#clip070)" style="stroke:#000000; stroke-linecap:round; stroke-linejoin:round; stroke-width:4; stroke-opacity:1; fill:none" points="209.964,1819.18 209.964,1800.28 "></polyline>
<polyline clip-path="url(#clip070)" style="stroke:#000000; stroke-linecap:round; stroke-linejoin:round; stroke-width:4; stroke-opacity:1; fill:none" points="667.096,1819.18 667.096,1800.28 "></polyline>
<polyline clip-path="url(#clip070)" style="stroke:#000000; stroke-linecap:round; stroke-linejoin:round; stroke-width:4; stroke-opacity:1; fill:none" points="1124.23,1819.18 1124.23,1800.28 "></polyline>
<polyline clip-path="url(#clip070)" style="stroke:#000000; stroke-linecap:round; stroke-linejoin:round; stroke-width:4; stroke-opacity:1; fill:none" points="1581.36,1819.18 1581.36,1800.28 "></polyline>
<polyline clip-path="url(#clip070)" style="stroke:#000000; stroke-linecap:round; stroke-linejoin:round; stroke-width:4; stroke-opacity:1; fill:none" points="2038.49,1819.18 2038.49,1800.28 "></polyline>
<polyline clip-path="url(#clip070)" style="stroke:#000000; stroke-linecap:round; stroke-linejoin:round; stroke-width:4; stroke-opacity:1; fill:none" points="2495.62,1819.18 2495.62,1800.28 "></polyline>
<polyline clip-path="url(#clip070)" style="stroke:#000000; stroke-linecap:round; stroke-linejoin:round; stroke-width:4; stroke-opacity:1; fill:none" points="2952.76,1819.18 2952.76,1800.28 "></polyline>
<path clip-path="url(#clip070)" d="M209.964 1854.9 Q206.352 1854.9 204.524 1858.46 Q202.718 1862 202.718 1869.13 Q202.718 1876.24 204.524 1879.81 Q206.352 1883.35 209.964 1883.35 Q213.598 1883.35 215.403 1879.81 Q217.232 1876.24 217.232 1869.13 Q217.232 1862 215.403 1858.46 Q213.598 1854.9 209.964 1854.9 M209.964 1851.19 Q215.774 1851.19 218.829 1855.8 Q221.908 1860.38 221.908 1869.13 Q221.908 1877.86 218.829 1882.47 Q215.774 1887.05 209.964 1887.05 Q204.153 1887.05 201.075 1882.47 Q198.019 1877.86 198.019 1869.13 Q198.019 1860.38 201.075 1855.8 Q204.153 1851.19 209.964 1851.19 Z" fill="#000000" fill-rule="nonzero" fill-opacity="1"></path><path clip-path="url(#clip070)" d="M657.373 1851.82 L675.73 1851.82 L675.73 1855.76 L661.656 1855.76 L661.656 1864.23 Q662.674 1863.88 663.693 1863.72 Q664.711 1863.53 665.73 1863.53 Q671.517 1863.53 674.897 1866.7 Q678.276 1869.88 678.276 1875.29 Q678.276 1880.87 674.804 1883.97 Q671.332 1887.05 665.012 1887.05 Q662.836 1887.05 660.568 1886.68 Q658.323 1886.31 655.915 1885.57 L655.915 1880.87 Q657.998 1882 660.221 1882.56 Q662.443 1883.12 664.92 1883.12 Q668.924 1883.12 671.262 1881.01 Q673.6 1878.9 673.6 1875.29 Q673.6 1871.68 671.262 1869.57 Q668.924 1867.47 664.92 1867.47 Q663.045 1867.47 661.17 1867.88 Q659.318 1868.3 657.373 1869.18 L657.373 1851.82 Z" fill="#000000" fill-rule="nonzero" fill-opacity="1"></path><path clip-path="url(#clip070)" d="M1098.92 1882.44 L1106.55 1882.44 L1106.55 1856.08 L1098.24 1857.75 L1098.24 1853.49 L1106.51 1851.82 L1111.18 1851.82 L1111.18 1882.44 L1118.82 1882.44 L1118.82 1886.38 L1098.92 1886.38 L1098.92 1882.44 Z" fill="#000000" fill-rule="nonzero" fill-opacity="1"></path><path clip-path="url(#clip070)" d="M1138.27 1854.9 Q1134.66 1854.9 1132.83 1858.46 Q1131.02 1862 1131.02 1869.13 Q1131.02 1876.24 1132.83 1879.81 Q1134.66 1883.35 1138.27 1883.35 Q1141.9 1883.35 1143.71 1879.81 Q1145.54 1876.24 1145.54 1869.13 Q1145.54 1862 1143.71 1858.46 Q1141.9 1854.9 1138.27 1854.9 M1138.27 1851.19 Q1144.08 1851.19 1147.13 1855.8 Q1150.21 1860.38 1150.21 1869.13 Q1150.21 1877.86 1147.13 1882.47 Q1144.08 1887.05 1138.27 1887.05 Q1132.46 1887.05 1129.38 1882.47 Q1126.32 1877.86 1126.32 1869.13 Q1126.32 1860.38 1129.38 1855.8 Q1132.46 1851.19 1138.27 1851.19 Z" fill="#000000" fill-rule="nonzero" fill-opacity="1"></path><path clip-path="url(#clip070)" d="M1556.55 1882.44 L1564.18 1882.44 L1564.18 1856.08 L1555.87 1857.75 L1555.87 1853.49 L1564.14 1851.82 L1568.81 1851.82 L1568.81 1882.44 L1576.45 1882.44 L1576.45 1886.38 L1556.55 1886.38 L1556.55 1882.44 Z" fill="#000000" fill-rule="nonzero" fill-opacity="1"></path><path clip-path="url(#clip070)" d="M1585.94 1851.82 L1604.3 1851.82 L1604.3 1855.76 L1590.23 1855.76 L1590.23 1864.23 Q1591.24 1863.88 1592.26 1863.72 Q1593.28 1863.53 1594.3 1863.53 Q1600.09 1863.53 1603.47 1866.7 Q1606.85 1869.88 1606.85 1875.29 Q1606.85 1880.87 1603.37 1883.97 Q1599.9 1887.05 1593.58 1887.05 Q1591.41 1887.05 1589.14 1886.68 Q1586.89 1886.31 1584.48 1885.57 L1584.48 1880.87 Q1586.57 1882 1588.79 1882.56 Q1591.01 1883.12 1593.49 1883.12 Q1597.49 1883.12 1599.83 1881.01 Q1602.17 1878.9 1602.17 1875.29 Q1602.17 1871.68 1599.83 1869.57 Q1597.49 1867.47 1593.49 1867.47 Q1591.61 1867.47 1589.74 1867.88 Q1587.89 1868.3 1585.94 1869.18 L1585.94 1851.82 Z" fill="#000000" fill-rule="nonzero" fill-opacity="1"></path><path clip-path="url(#clip070)" d="M2017.27 1882.44 L2033.58 1882.44 L2033.58 1886.38 L2011.64 1886.38 L2011.64 1882.44 Q2014.3 1879.69 2018.89 1875.06 Q2023.49 1870.41 2024.67 1869.07 Q2026.92 1866.54 2027.8 1864.81 Q2028.7 1863.05 2028.7 1861.36 Q2028.7 1858.6 2026.76 1856.87 Q2024.83 1855.13 2021.73 1855.13 Q2019.53 1855.13 2017.08 1855.89 Q2014.65 1856.66 2011.87 1858.21 L2011.87 1853.49 Q2014.7 1852.35 2017.15 1851.77 Q2019.6 1851.19 2021.64 1851.19 Q2027.01 1851.19 2030.2 1853.88 Q2033.4 1856.57 2033.4 1861.06 Q2033.4 1863.19 2032.59 1865.11 Q2031.8 1867 2029.7 1869.6 Q2029.12 1870.27 2026.02 1873.49 Q2022.91 1876.68 2017.27 1882.44 Z" fill="#000000" fill-rule="nonzero" fill-opacity="1"></path><path clip-path="url(#clip070)" d="M2053.4 1854.9 Q2049.79 1854.9 2047.96 1858.46 Q2046.15 1862 2046.15 1869.13 Q2046.15 1876.24 2047.96 1879.81 Q2049.79 1883.35 2053.4 1883.35 Q2057.03 1883.35 2058.84 1879.81 Q2060.67 1876.24 2060.67 1869.13 Q2060.67 1862 2058.84 1858.46 Q2057.03 1854.9 2053.4 1854.9 M2053.4 1851.19 Q2059.21 1851.19 2062.26 1855.8 Q2065.34 1860.38 2065.34 1869.13 Q2065.34 1877.86 2062.26 1882.47 Q2059.21 1887.05 2053.4 1887.05 Q2047.59 1887.05 2044.51 1882.47 Q2041.45 1877.86 2041.45 1869.13 Q2041.45 1860.38 2044.51 1855.8 Q2047.59 1851.19 2053.4 1851.19 Z" fill="#000000" fill-rule="nonzero" fill-opacity="1"></path><path clip-path="url(#clip070)" d="M2474.89 1882.44 L2491.21 1882.44 L2491.21 1886.38 L2469.27 1886.38 L2469.27 1882.44 Q2471.93 1879.69 2476.52 1875.06 Q2481.12 1870.41 2482.3 1869.07 Q2484.55 1866.54 2485.43 1864.81 Q2486.33 1863.05 2486.33 1861.36 Q2486.33 1858.6 2484.39 1856.87 Q2482.46 1855.13 2479.36 1855.13 Q2477.16 1855.13 2474.71 1855.89 Q2472.28 1856.66 2469.5 1858.21 L2469.5 1853.49 Q2472.33 1852.35 2474.78 1851.77 Q2477.23 1851.19 2479.27 1851.19 Q2484.64 1851.19 2487.83 1853.88 Q2491.03 1856.57 2491.03 1861.06 Q2491.03 1863.19 2490.22 1865.11 Q2489.43 1867 2487.33 1869.6 Q2486.75 1870.27 2483.64 1873.49 Q2480.54 1876.68 2474.89 1882.44 Z" fill="#000000" fill-rule="nonzero" fill-opacity="1"></path><path clip-path="url(#clip070)" d="M2501.08 1851.82 L2519.43 1851.82 L2519.43 1855.76 L2505.36 1855.76 L2505.36 1864.23 Q2506.38 1863.88 2507.39 1863.72 Q2508.41 1863.53 2509.43 1863.53 Q2515.22 1863.53 2518.6 1866.7 Q2521.98 1869.88 2521.98 1875.29 Q2521.98 1880.87 2518.51 1883.97 Q2515.03 1887.05 2508.71 1887.05 Q2506.54 1887.05 2504.27 1886.68 Q2502.02 1886.31 2499.62 1885.57 L2499.62 1880.87 Q2501.7 1882 2503.92 1882.56 Q2506.14 1883.12 2508.62 1883.12 Q2512.63 1883.12 2514.96 1881.01 Q2517.3 1878.9 2517.3 1875.29 Q2517.3 1871.68 2514.96 1869.57 Q2512.63 1867.47 2508.62 1867.47 Q2506.75 1867.47 2504.87 1867.88 Q2503.02 1868.3 2501.08 1869.18 L2501.08 1851.82 Z" fill="#000000" fill-rule="nonzero" fill-opacity="1"></path><path clip-path="url(#clip070)" d="M2941.6 1867.75 Q2944.96 1868.46 2946.83 1870.73 Q2948.73 1873 2948.73 1876.33 Q2948.73 1881.45 2945.21 1884.25 Q2941.69 1887.05 2935.21 1887.05 Q2933.03 1887.05 2930.72 1886.61 Q2928.43 1886.19 2925.97 1885.34 L2925.97 1880.82 Q2927.92 1881.96 2930.23 1882.54 Q2932.55 1883.12 2935.07 1883.12 Q2939.47 1883.12 2941.76 1881.38 Q2944.08 1879.64 2944.08 1876.33 Q2944.08 1873.28 2941.92 1871.57 Q2939.79 1869.83 2935.97 1869.83 L2931.95 1869.83 L2931.95 1865.99 L2936.16 1865.99 Q2939.61 1865.99 2941.44 1864.62 Q2943.27 1863.23 2943.27 1860.64 Q2943.27 1857.98 2941.37 1856.57 Q2939.49 1855.13 2935.97 1855.13 Q2934.05 1855.13 2931.85 1855.55 Q2929.65 1855.96 2927.02 1856.84 L2927.02 1852.68 Q2929.68 1851.94 2931.99 1851.57 Q2934.33 1851.19 2936.39 1851.19 Q2941.71 1851.19 2944.82 1853.63 Q2947.92 1856.03 2947.92 1860.15 Q2947.92 1863.02 2946.27 1865.01 Q2944.63 1866.98 2941.6 1867.75 Z" fill="#000000" fill-rule="nonzero" fill-opacity="1"></path><path clip-path="url(#clip070)" d="M2967.59 1854.9 Q2963.98 1854.9 2962.15 1858.46 Q2960.35 1862 2960.35 1869.13 Q2960.35 1876.24 2962.15 1879.81 Q2963.98 1883.35 2967.59 1883.35 Q2971.23 1883.35 2973.03 1879.81 Q2974.86 1876.24 2974.86 1869.13 Q2974.86 1862 2973.03 1858.46 Q2971.23 1854.9 2967.59 1854.9 M2967.59 1851.19 Q2973.4 1851.19 2976.46 1855.8 Q2979.54 1860.38 2979.54 1869.13 Q2979.54 1877.86 2976.46 1882.47 Q2973.4 1887.05 2967.59 1887.05 Q2961.78 1887.05 2958.7 1882.47 Q2955.65 1877.86 2955.65 1869.13 Q2955.65 1860.38 2958.7 1855.8 Q2961.78 1851.19 2967.59 1851.19 Z" fill="#000000" fill-rule="nonzero" fill-opacity="1"></path><path clip-path="url(#clip070)" d="M1337.7 1966.26 L1337.7 1953.5 L1327.19 1953.5 L1327.19 1948.22 L1344.06 1948.22 L1344.06 1968.62 Q1340.34 1971.26 1335.85 1972.63 Q1331.36 1973.97 1326.27 1973.97 Q1315.13 1973.97 1308.83 1967.47 Q1302.56 1960.95 1302.56 1949.33 Q1302.56 1937.68 1308.83 1931.19 Q1315.13 1924.66 1326.27 1924.66 Q1330.92 1924.66 1335.09 1925.81 Q1339.29 1926.96 1342.82 1929.18 L1342.82 1936.03 Q1339.26 1933 1335.25 1931.48 Q1331.24 1929.95 1326.81 1929.95 Q1318.09 1929.95 1313.7 1934.82 Q1309.34 1939.69 1309.34 1949.33 Q1309.34 1958.94 1313.7 1963.81 Q1318.09 1968.68 1326.81 1968.68 Q1330.22 1968.68 1332.89 1968.11 Q1335.56 1967.51 1337.7 1966.26 Z" fill="#000000" fill-rule="nonzero" fill-opacity="1"></path><path clip-path="url(#clip070)" d="M1386.04 1953.76 L1386.04 1956.62 L1359.12 1956.62 Q1359.5 1962.67 1362.75 1965.85 Q1366.02 1969 1371.85 1969 Q1375.22 1969 1378.37 1968.17 Q1381.56 1967.35 1384.68 1965.69 L1384.68 1971.23 Q1381.52 1972.57 1378.21 1973.27 Q1374.9 1973.97 1371.5 1973.97 Q1362.97 1973.97 1357.97 1969 Q1353.01 1964.04 1353.01 1955.57 Q1353.01 1946.82 1357.72 1941.69 Q1362.46 1936.54 1370.48 1936.54 Q1377.67 1936.54 1381.84 1941.18 Q1386.04 1945.8 1386.04 1953.76 M1380.19 1952.04 Q1380.12 1947.23 1377.48 1944.37 Q1374.87 1941.5 1370.54 1941.5 Q1365.64 1941.5 1362.68 1944.27 Q1359.75 1947.04 1359.31 1952.07 L1380.19 1952.04 Z" fill="#000000" fill-rule="nonzero" fill-opacity="1"></path><path clip-path="url(#clip070)" d="M1425.29 1951.53 L1425.29 1973.04 L1419.43 1973.04 L1419.43 1951.72 Q1419.43 1946.66 1417.46 1944.14 Q1415.49 1941.63 1411.54 1941.63 Q1406.8 1941.63 1404.06 1944.65 Q1401.32 1947.68 1401.32 1952.9 L1401.32 1973.04 L1395.43 1973.04 L1395.43 1937.4 L1401.32 1937.4 L1401.32 1942.93 Q1403.42 1939.72 1406.26 1938.13 Q1409.12 1936.54 1412.84 1936.54 Q1418.99 1936.54 1422.14 1940.36 Q1425.29 1944.14 1425.29 1951.53 Z" fill="#000000" fill-rule="nonzero" fill-opacity="1"></path><path clip-path="url(#clip070)" d="M1467.46 1953.76 L1467.46 1956.62 L1440.53 1956.62 Q1440.92 1962.67 1444.16 1965.85 Q1447.44 1969 1453.27 1969 Q1456.64 1969 1459.79 1968.17 Q1462.97 1967.35 1466.09 1965.69 L1466.09 1971.23 Q1462.94 1972.57 1459.63 1973.27 Q1456.32 1973.97 1452.92 1973.97 Q1444.39 1973.97 1439.39 1969 Q1434.42 1964.04 1434.42 1955.57 Q1434.42 1946.82 1439.13 1941.69 Q1443.88 1936.54 1451.9 1936.54 Q1459.09 1936.54 1463.26 1941.18 Q1467.46 1945.8 1467.46 1953.76 M1461.6 1952.04 Q1461.54 1947.23 1458.9 1944.37 Q1456.29 1941.5 1451.96 1941.5 Q1447.06 1941.5 1444.1 1944.27 Q1441.17 1947.04 1440.73 1952.07 L1461.6 1952.04 Z" fill="#000000" fill-rule="nonzero" fill-opacity="1"></path><path clip-path="url(#clip070)" d="M1497.73 1942.87 Q1496.74 1942.3 1495.57 1942.04 Q1494.42 1941.76 1493.02 1941.76 Q1488.05 1941.76 1485.38 1945 Q1482.74 1948.22 1482.74 1954.27 L1482.74 1973.04 L1476.85 1973.04 L1476.85 1937.4 L1482.74 1937.4 L1482.74 1942.93 Q1484.59 1939.69 1487.55 1938.13 Q1490.51 1936.54 1494.74 1936.54 Q1495.34 1936.54 1496.08 1936.63 Q1496.81 1936.7 1497.7 1936.85 L1497.73 1942.87 Z" fill="#000000" fill-rule="nonzero" fill-opacity="1"></path><path clip-path="url(#clip070)" d="M1520.07 1955.12 Q1512.98 1955.12 1510.24 1956.75 Q1507.5 1958.37 1507.5 1962.29 Q1507.5 1965.4 1509.54 1967.25 Q1511.61 1969.07 1515.14 1969.07 Q1520.01 1969.07 1522.94 1965.63 Q1525.9 1962.16 1525.9 1956.43 L1525.9 1955.12 L1520.07 1955.12 M1531.75 1952.71 L1531.75 1973.04 L1525.9 1973.04 L1525.9 1967.63 Q1523.89 1970.88 1520.9 1972.44 Q1517.91 1973.97 1513.58 1973.97 Q1508.11 1973.97 1504.86 1970.91 Q1501.65 1967.82 1501.65 1962.67 Q1501.65 1956.65 1505.66 1953.6 Q1509.7 1950.54 1517.69 1950.54 L1525.9 1950.54 L1525.9 1949.97 Q1525.9 1945.93 1523.22 1943.73 Q1520.58 1941.5 1515.78 1941.5 Q1512.72 1941.5 1509.83 1942.23 Q1506.93 1942.97 1504.26 1944.43 L1504.26 1939.02 Q1507.47 1937.78 1510.49 1937.17 Q1513.52 1936.54 1516.38 1936.54 Q1524.12 1936.54 1527.94 1940.55 Q1531.75 1944.56 1531.75 1952.71 Z" fill="#000000" fill-rule="nonzero" fill-opacity="1"></path><path clip-path="url(#clip070)" d="M1549.61 1927.27 L1549.61 1937.4 L1561.67 1937.4 L1561.67 1941.95 L1549.61 1941.95 L1549.61 1961.3 Q1549.61 1965.66 1550.79 1966.9 Q1552 1968.14 1555.66 1968.14 L1561.67 1968.14 L1561.67 1973.04 L1555.66 1973.04 Q1548.88 1973.04 1546.3 1970.53 Q1543.72 1967.98 1543.72 1961.3 L1543.72 1941.95 L1539.43 1941.95 L1539.43 1937.4 L1543.72 1937.4 L1543.72 1927.27 L1549.61 1927.27 Z" fill="#000000" fill-rule="nonzero" fill-opacity="1"></path><path clip-path="url(#clip070)" d="M1569.38 1937.4 L1575.23 1937.4 L1575.23 1973.04 L1569.38 1973.04 L1569.38 1937.4 M1569.38 1923.52 L1575.23 1923.52 L1575.23 1930.93 L1569.38 1930.93 L1569.38 1923.52 Z" fill="#000000" fill-rule="nonzero" fill-opacity="1"></path><path clip-path="url(#clip070)" d="M1583.29 1937.4 L1589.49 1937.4 L1600.63 1967.31 L1611.77 1937.4 L1617.98 1937.4 L1604.61 1973.04 L1596.65 1973.04 L1583.29 1937.4 Z" fill="#000000" fill-rule="nonzero" fill-opacity="1"></path><path clip-path="url(#clip070)" d="M1656.55 1953.76 L1656.55 1956.62 L1629.63 1956.62 Q1630.01 1962.67 1633.26 1965.85 Q1636.53 1969 1642.36 1969 Q1645.73 1969 1648.88 1968.17 Q1652.07 1967.35 1655.19 1965.69 L1655.19 1971.23 Q1652.03 1972.57 1648.72 1973.27 Q1645.41 1973.97 1642.01 1973.97 Q1633.48 1973.97 1628.48 1969 Q1623.52 1964.04 1623.52 1955.57 Q1623.52 1946.82 1628.23 1941.69 Q1632.97 1936.54 1640.99 1936.54 Q1648.18 1936.54 1652.35 1941.18 Q1656.55 1945.8 1656.55 1953.76 M1650.7 1952.04 Q1650.63 1947.23 1647.99 1944.37 Q1645.38 1941.5 1641.05 1941.5 Q1636.15 1941.5 1633.19 1944.27 Q1630.26 1947.04 1629.82 1952.07 L1650.7 1952.04 Z" fill="#000000" fill-rule="nonzero" fill-opacity="1"></path><path clip-path="url(#clip070)" d="M1703.02 1931.86 L1694.3 1955.51 L1711.78 1955.51 L1703.02 1931.86 M1699.4 1925.52 L1706.68 1925.52 L1724.8 1973.04 L1718.11 1973.04 L1713.78 1960.85 L1692.36 1960.85 L1688.03 1973.04 L1681.25 1973.04 L1699.4 1925.52 Z" fill="#000000" fill-rule="nonzero" fill-opacity="1"></path><path clip-path="url(#clip070)" d="M1731.48 1923.52 L1737.34 1923.52 L1737.34 1973.04 L1731.48 1973.04 L1731.48 1923.52 Z" fill="#000000" fill-rule="nonzero" fill-opacity="1"></path><path clip-path="url(#clip070)" d="M1755.25 1967.7 L1755.25 1986.6 L1749.37 1986.6 L1749.37 1937.4 L1755.25 1937.4 L1755.25 1942.81 Q1757.1 1939.62 1759.9 1938.1 Q1762.73 1936.54 1766.65 1936.54 Q1773.14 1936.54 1777.18 1941.69 Q1781.26 1946.85 1781.26 1955.25 Q1781.26 1963.65 1777.18 1968.81 Q1773.14 1973.97 1766.65 1973.97 Q1762.73 1973.97 1759.9 1972.44 Q1757.1 1970.88 1755.25 1967.7 M1775.18 1955.25 Q1775.18 1948.79 1772.51 1945.13 Q1769.86 1941.44 1765.22 1941.44 Q1760.57 1941.44 1757.9 1945.13 Q1755.25 1948.79 1755.25 1955.25 Q1755.25 1961.71 1757.9 1965.4 Q1760.57 1969.07 1765.22 1969.07 Q1769.86 1969.07 1772.51 1965.4 Q1775.18 1961.71 1775.18 1955.25 Z" fill="#000000" fill-rule="nonzero" fill-opacity="1"></path><path clip-path="url(#clip070)" d="M1820.6 1951.53 L1820.6 1973.04 L1814.74 1973.04 L1814.74 1951.72 Q1814.74 1946.66 1812.77 1944.14 Q1810.8 1941.63 1806.85 1941.63 Q1802.11 1941.63 1799.37 1944.65 Q1796.63 1947.68 1796.63 1952.9 L1796.63 1973.04 L1790.74 1973.04 L1790.74 1923.52 L1796.63 1923.52 L1796.63 1942.93 Q1798.73 1939.72 1801.57 1938.13 Q1804.43 1936.54 1808.15 1936.54 Q1814.3 1936.54 1817.45 1940.36 Q1820.6 1944.14 1820.6 1951.53 Z" fill="#000000" fill-rule="nonzero" fill-opacity="1"></path><path clip-path="url(#clip070)" d="M1848.48 1955.12 Q1841.38 1955.12 1838.65 1956.75 Q1835.91 1958.37 1835.91 1962.29 Q1835.91 1965.4 1837.95 1967.25 Q1840.01 1969.07 1843.55 1969.07 Q1848.42 1969.07 1851.35 1965.63 Q1854.31 1962.16 1854.31 1956.43 L1854.31 1955.12 L1848.48 1955.12 M1860.16 1952.71 L1860.16 1973.04 L1854.31 1973.04 L1854.31 1967.63 Q1852.3 1970.88 1849.31 1972.44 Q1846.32 1973.97 1841.99 1973.97 Q1836.51 1973.97 1833.27 1970.91 Q1830.05 1967.82 1830.05 1962.67 Q1830.05 1956.65 1834.06 1953.6 Q1838.1 1950.54 1846.09 1950.54 L1854.31 1950.54 L1854.31 1949.97 Q1854.31 1945.93 1851.63 1943.73 Q1848.99 1941.5 1844.18 1941.5 Q1841.13 1941.5 1838.23 1942.23 Q1835.34 1942.97 1832.66 1944.43 L1832.66 1939.02 Q1835.88 1937.78 1838.9 1937.17 Q1841.92 1936.54 1844.79 1936.54 Q1852.52 1936.54 1856.34 1940.55 Q1860.16 1944.56 1860.16 1952.71 Z" fill="#000000" fill-rule="nonzero" fill-opacity="1"></path><polyline clip-path="url(#clip072)" style="stroke:#000000; stroke-linecap:round; stroke-linejoin:round; stroke-width:2; stroke-opacity:0.1; fill:none" points="209.964,1819.18 2952.76,1819.18 "></polyline>
<polyline clip-path="url(#clip072)" style="stroke:#000000; stroke-linecap:round; stroke-linejoin:round; stroke-width:2; stroke-opacity:0.1; fill:none" points="209.964,1480.04 2952.76,1480.04 "></polyline>
<polyline clip-path="url(#clip072)" style="stroke:#000000; stroke-linecap:round; stroke-linejoin:round; stroke-width:2; stroke-opacity:0.1; fill:none" points="209.964,1140.9 2952.76,1140.9 "></polyline>
<polyline clip-path="url(#clip072)" style="stroke:#000000; stroke-linecap:round; stroke-linejoin:round; stroke-width:2; stroke-opacity:0.1; fill:none" points="209.964,801.755 2952.76,801.755 "></polyline>
<polyline clip-path="url(#clip072)" style="stroke:#000000; stroke-linecap:round; stroke-linejoin:round; stroke-width:2; stroke-opacity:0.1; fill:none" points="209.964,462.614 2952.76,462.614 "></polyline>
<polyline clip-path="url(#clip072)" style="stroke:#000000; stroke-linecap:round; stroke-linejoin:round; stroke-width:2; stroke-opacity:0.1; fill:none" points="209.964,123.472 2952.76,123.472 "></polyline>
<polyline clip-path="url(#clip070)" style="stroke:#000000; stroke-linecap:round; stroke-linejoin:round; stroke-width:4; stroke-opacity:1; fill:none" points="209.964,1819.18 209.964,123.472 "></polyline>
<polyline clip-path="url(#clip070)" style="stroke:#000000; stroke-linecap:round; stroke-linejoin:round; stroke-width:4; stroke-opacity:1; fill:none" points="209.964,1819.18 228.861,1819.18 "></polyline>
<polyline clip-path="url(#clip070)" style="stroke:#000000; stroke-linecap:round; stroke-linejoin:round; stroke-width:4; stroke-opacity:1; fill:none" points="209.964,1480.04 228.861,1480.04 "></polyline>
<polyline clip-path="url(#clip070)" style="stroke:#000000; stroke-linecap:round; stroke-linejoin:round; stroke-width:4; stroke-opacity:1; fill:none" points="209.964,1140.9 228.861,1140.9 "></polyline>
<polyline clip-path="url(#clip070)" style="stroke:#000000; stroke-linecap:round; stroke-linejoin:round; stroke-width:4; stroke-opacity:1; fill:none" points="209.964,801.755 228.861,801.755 "></polyline>
<polyline clip-path="url(#clip070)" style="stroke:#000000; stroke-linecap:round; stroke-linejoin:round; stroke-width:4; stroke-opacity:1; fill:none" points="209.964,462.614 228.861,462.614 "></polyline>
<polyline clip-path="url(#clip070)" style="stroke:#000000; stroke-linecap:round; stroke-linejoin:round; stroke-width:4; stroke-opacity:1; fill:none" points="209.964,123.472 228.861,123.472 "></polyline>
<path clip-path="url(#clip070)" d="M153.019 1804.98 Q149.408 1804.98 147.579 1808.54 Q145.774 1812.08 145.774 1819.21 Q145.774 1826.32 147.579 1829.89 Q149.408 1833.43 153.019 1833.43 Q156.653 1833.43 158.459 1829.89 Q160.288 1826.32 160.288 1819.21 Q160.288 1812.08 158.459 1808.54 Q156.653 1804.98 153.019 1804.98 M153.019 1801.27 Q158.829 1801.27 161.885 1805.88 Q164.964 1810.46 164.964 1819.21 Q164.964 1827.94 161.885 1832.55 Q158.829 1837.13 153.019 1837.13 Q147.209 1837.13 144.13 1832.55 Q141.075 1827.94 141.075 1819.21 Q141.075 1810.46 144.13 1805.88 Q147.209 1801.27 153.019 1801.27 Z" fill="#000000" fill-rule="nonzero" fill-opacity="1"></path><path clip-path="url(#clip070)" d="M144.061 1462.76 L162.417 1462.76 L162.417 1466.69 L148.343 1466.69 L148.343 1475.17 Q149.362 1474.82 150.38 1474.66 Q151.399 1474.47 152.417 1474.47 Q158.204 1474.47 161.584 1477.64 Q164.964 1480.81 164.964 1486.23 Q164.964 1491.81 161.491 1494.91 Q158.019 1497.99 151.7 1497.99 Q149.524 1497.99 147.255 1497.62 Q145.01 1497.25 142.603 1496.51 L142.603 1491.81 Q144.686 1492.94 146.908 1493.5 Q149.13 1494.05 151.607 1494.05 Q155.612 1494.05 157.95 1491.95 Q160.288 1489.84 160.288 1486.23 Q160.288 1482.62 157.95 1480.51 Q155.612 1478.41 151.607 1478.41 Q149.732 1478.41 147.857 1478.82 Q146.005 1479.24 144.061 1480.12 L144.061 1462.76 Z" fill="#000000" fill-rule="nonzero" fill-opacity="1"></path><path clip-path="url(#clip070)" d="M113.668 1154.24 L121.306 1154.24 L121.306 1127.88 L112.996 1129.54 L112.996 1125.28 L121.26 1123.62 L125.936 1123.62 L125.936 1154.24 L133.575 1154.24 L133.575 1158.18 L113.668 1158.18 L113.668 1154.24 Z" fill="#000000" fill-rule="nonzero" fill-opacity="1"></path><path clip-path="url(#clip070)" d="M153.019 1126.7 Q149.408 1126.7 147.579 1130.26 Q145.774 1133.8 145.774 1140.93 Q145.774 1148.04 147.579 1151.6 Q149.408 1155.14 153.019 1155.14 Q156.653 1155.14 158.459 1151.6 Q160.288 1148.04 160.288 1140.93 Q160.288 1133.8 158.459 1130.26 Q156.653 1126.7 153.019 1126.7 M153.019 1122.99 Q158.829 1122.99 161.885 1127.6 Q164.964 1132.18 164.964 1140.93 Q164.964 1149.66 161.885 1154.26 Q158.829 1158.85 153.019 1158.85 Q147.209 1158.85 144.13 1154.26 Q141.075 1149.66 141.075 1140.93 Q141.075 1132.18 144.13 1127.6 Q147.209 1122.99 153.019 1122.99 Z" fill="#000000" fill-rule="nonzero" fill-opacity="1"></path><path clip-path="url(#clip070)" d="M114.663 815.1 L122.302 815.1 L122.302 788.734 L113.992 790.401 L113.992 786.142 L122.255 784.475 L126.931 784.475 L126.931 815.1 L134.57 815.1 L134.57 819.035 L114.663 819.035 L114.663 815.1 Z" fill="#000000" fill-rule="nonzero" fill-opacity="1"></path><path clip-path="url(#clip070)" d="M144.061 784.475 L162.417 784.475 L162.417 788.41 L148.343 788.41 L148.343 796.883 Q149.362 796.535 150.38 796.373 Q151.399 796.188 152.417 796.188 Q158.204 796.188 161.584 799.359 Q164.964 802.531 164.964 807.947 Q164.964 813.526 161.491 816.628 Q158.019 819.707 151.7 819.707 Q149.524 819.707 147.255 819.336 Q145.01 818.966 142.603 818.225 L142.603 813.526 Q144.686 814.66 146.908 815.216 Q149.13 815.771 151.607 815.771 Q155.612 815.771 157.95 813.665 Q160.288 811.558 160.288 807.947 Q160.288 804.336 157.95 802.23 Q155.612 800.123 151.607 800.123 Q149.732 800.123 147.857 800.54 Q146.005 800.957 144.061 801.836 L144.061 784.475 Z" fill="#000000" fill-rule="nonzero" fill-opacity="1"></path><path clip-path="url(#clip070)" d="M116.885 475.959 L133.204 475.959 L133.204 479.894 L111.26 479.894 L111.26 475.959 Q113.922 473.204 118.505 468.574 Q123.112 463.922 124.292 462.579 Q126.538 460.056 127.417 458.32 Q128.32 456.56 128.32 454.871 Q128.32 452.116 126.376 450.38 Q124.455 448.644 121.353 448.644 Q119.154 448.644 116.7 449.408 Q114.269 450.172 111.492 451.723 L111.492 447 Q114.316 445.866 116.769 445.287 Q119.223 444.709 121.26 444.709 Q126.63 444.709 129.825 447.394 Q133.019 450.079 133.019 454.57 Q133.019 456.699 132.209 458.621 Q131.422 460.519 129.316 463.111 Q128.737 463.783 125.635 467 Q122.533 470.195 116.885 475.959 Z" fill="#000000" fill-rule="nonzero" fill-opacity="1"></path><path clip-path="url(#clip070)" d="M153.019 448.412 Q149.408 448.412 147.579 451.977 Q145.774 455.519 145.774 462.648 Q145.774 469.755 147.579 473.32 Q149.408 476.861 153.019 476.861 Q156.653 476.861 158.459 473.32 Q160.288 469.755 160.288 462.648 Q160.288 455.519 158.459 451.977 Q156.653 448.412 153.019 448.412 M153.019 444.709 Q158.829 444.709 161.885 449.315 Q164.964 453.898 164.964 462.648 Q164.964 471.375 161.885 475.982 Q158.829 480.565 153.019 480.565 Q147.209 480.565 144.13 475.982 Q141.075 471.375 141.075 462.648 Q141.075 453.898 144.13 449.315 Q147.209 444.709 153.019 444.709 Z" fill="#000000" fill-rule="nonzero" fill-opacity="1"></path><path clip-path="url(#clip070)" d="M117.88 136.817 L134.2 136.817 L134.2 140.752 L112.256 140.752 L112.256 136.817 Q114.918 134.062 119.501 129.433 Q124.107 124.78 125.288 123.437 Q127.533 120.914 128.413 119.178 Q129.316 117.419 129.316 115.729 Q129.316 112.974 127.371 111.238 Q125.45 109.502 122.348 109.502 Q120.149 109.502 117.695 110.266 Q115.265 111.03 112.487 112.581 L112.487 107.859 Q115.311 106.725 117.765 106.146 Q120.218 105.567 122.255 105.567 Q127.626 105.567 130.82 108.252 Q134.015 110.937 134.015 115.428 Q134.015 117.558 133.204 119.479 Q132.417 121.377 130.311 123.97 Q129.732 124.641 126.63 127.859 Q123.529 131.053 117.88 136.817 Z" fill="#000000" fill-rule="nonzero" fill-opacity="1"></path><path clip-path="url(#clip070)" d="M144.061 106.192 L162.417 106.192 L162.417 110.127 L148.343 110.127 L148.343 118.599 Q149.362 118.252 150.38 118.09 Q151.399 117.905 152.417 117.905 Q158.204 117.905 161.584 121.076 Q164.964 124.248 164.964 129.664 Q164.964 135.243 161.491 138.345 Q158.019 141.423 151.7 141.423 Q149.524 141.423 147.255 141.053 Q145.01 140.683 142.603 139.942 L142.603 135.243 Q144.686 136.377 146.908 136.933 Q149.13 137.488 151.607 137.488 Q155.612 137.488 157.95 135.382 Q160.288 133.275 160.288 129.664 Q160.288 126.053 157.95 123.947 Q155.612 121.84 151.607 121.84 Q149.732 121.84 147.857 122.257 Q146.005 122.674 144.061 123.553 L144.061 106.192 Z" fill="#000000" fill-rule="nonzero" fill-opacity="1"></path><path clip-path="url(#clip070)" d="M4.48416 1232.85 L4.48416 1202.8 L9.89501 1202.8 L9.89501 1226.42 L23.9632 1226.42 L23.9632 1203.79 L29.3741 1203.79 L29.3741 1226.42 L46.5933 1226.42 L46.5933 1202.23 L52.0042 1202.23 L52.0042 1232.85 L4.48416 1232.85 Z" fill="#000000" fill-rule="nonzero" fill-opacity="1"></path><path clip-path="url(#clip070)" d="M17.4065 1169.19 L22.9447 1169.19 Q21.6716 1171.67 21.035 1174.34 Q20.3984 1177.02 20.3984 1179.88 Q20.3984 1184.24 21.7352 1186.44 Q23.072 1188.6 25.7456 1188.6 Q27.7826 1188.6 28.9603 1187.04 Q30.1061 1185.48 31.1565 1180.77 L31.6021 1178.77 Q32.9389 1172.53 35.3897 1169.92 Q37.8086 1167.28 42.1691 1167.28 Q47.1344 1167.28 50.0308 1171.23 Q52.9272 1175.14 52.9272 1182.01 Q52.9272 1184.88 52.3543 1188 Q51.8132 1191.09 50.6992 1194.52 L44.6518 1194.52 Q46.3387 1191.28 47.198 1188.13 Q48.0256 1184.98 48.0256 1181.89 Q48.0256 1177.75 46.6251 1175.52 Q45.1929 1173.29 42.6147 1173.29 Q40.2276 1173.29 38.9545 1174.92 Q37.6813 1176.51 36.5037 1181.95 L36.0262 1183.99 Q34.8804 1189.43 32.5251 1191.85 Q30.138 1194.27 26.0002 1194.27 Q20.9713 1194.27 18.2341 1190.7 Q15.4968 1187.14 15.4968 1180.58 Q15.4968 1177.34 15.9743 1174.47 Q16.4517 1171.61 17.4065 1169.19 Z" fill="#000000" fill-rule="nonzero" fill-opacity="1"></path><path clip-path="url(#clip070)" d="M6.23473 1152.16 L16.3562 1152.16 L16.3562 1140.1 L20.9077 1140.1 L20.9077 1152.16 L40.2594 1152.16 Q44.6199 1152.16 45.8613 1150.98 Q47.1026 1149.77 47.1026 1146.11 L47.1026 1140.1 L52.0042 1140.1 L52.0042 1146.11 Q52.0042 1152.89 49.4897 1155.47 Q46.9434 1158.05 40.2594 1158.05 L20.9077 1158.05 L20.9077 1162.34 L16.3562 1162.34 L16.3562 1158.05 L6.23473 1158.05 L6.23473 1152.16 Z" fill="#000000" fill-rule="nonzero" fill-opacity="1"></path><path clip-path="url(#clip070)" d="M16.3562 1132.39 L16.3562 1126.54 L52.0042 1126.54 L52.0042 1132.39 L16.3562 1132.39 M2.47896 1132.39 L2.47896 1126.54 L9.89501 1126.54 L9.89501 1132.39 L2.47896 1132.39 Z" fill="#000000" fill-rule="nonzero" fill-opacity="1"></path><path clip-path="url(#clip070)" d="M23.1993 1086.53 Q19.2526 1084.33 17.3747 1081.28 Q15.4968 1078.22 15.4968 1074.08 Q15.4968 1068.51 19.4117 1065.49 Q23.2948 1062.47 30.4881 1062.47 L52.0042 1062.47 L52.0042 1068.36 L30.679 1068.36 Q25.5546 1068.36 23.072 1070.17 Q20.5894 1071.98 20.5894 1075.71 Q20.5894 1080.26 23.6131 1082.9 Q26.6368 1085.54 31.8567 1085.54 L52.0042 1085.54 L52.0042 1091.43 L30.679 1091.43 Q25.5228 1091.43 23.072 1093.25 Q20.5894 1095.06 20.5894 1098.85 Q20.5894 1103.33 23.6449 1105.98 Q26.6686 1108.62 31.8567 1108.62 L52.0042 1108.62 L52.0042 1114.51 L16.3562 1114.51 L16.3562 1108.62 L21.8944 1108.62 Q18.616 1106.61 17.0564 1103.81 Q15.4968 1101.01 15.4968 1097.16 Q15.4968 1093.28 17.4702 1090.57 Q19.4436 1087.83 23.1993 1086.53 Z" fill="#000000" fill-rule="nonzero" fill-opacity="1"></path><path clip-path="url(#clip070)" d="M34.0847 1034.59 Q34.0847 1041.68 35.7079 1044.42 Q37.3312 1047.16 41.2461 1047.16 Q44.3653 1047.16 46.2114 1045.12 Q48.0256 1043.05 48.0256 1039.52 Q48.0256 1034.65 44.5881 1031.72 Q41.1188 1028.76 35.3897 1028.76 L34.0847 1028.76 L34.0847 1034.59 M31.6657 1022.9 L52.0042 1022.9 L52.0042 1028.76 L46.5933 1028.76 Q49.8398 1030.77 51.3994 1033.76 Q52.9272 1036.75 52.9272 1041.08 Q52.9272 1046.55 49.8716 1049.8 Q46.7843 1053.01 41.6281 1053.01 Q35.6125 1053.01 32.5569 1049 Q29.5014 1044.96 29.5014 1036.97 L29.5014 1028.76 L28.9285 1028.76 Q24.8862 1028.76 22.6901 1031.43 Q20.4621 1034.08 20.4621 1038.88 Q20.4621 1041.94 21.1941 1044.83 Q21.9262 1047.73 23.3903 1050.4 L17.9795 1050.4 Q16.7381 1047.19 16.1334 1044.17 Q15.4968 1041.14 15.4968 1038.28 Q15.4968 1030.54 19.5072 1026.72 Q23.5176 1022.9 31.6657 1022.9 Z" fill="#000000" fill-rule="nonzero" fill-opacity="1"></path><path clip-path="url(#clip070)" d="M6.23473 1005.05 L16.3562 1005.05 L16.3562 992.985 L20.9077 992.985 L20.9077 1005.05 L40.2594 1005.05 Q44.6199 1005.05 45.8613 1003.87 Q47.1026 1002.66 47.1026 999.001 L47.1026 992.985 L52.0042 992.985 L52.0042 999.001 Q52.0042 1005.78 49.4897 1008.36 Q46.9434 1010.94 40.2594 1010.94 L20.9077 1010.94 L20.9077 1015.23 L16.3562 1015.23 L16.3562 1010.94 L6.23473 1010.94 L6.23473 1005.05 Z" fill="#000000" fill-rule="nonzero" fill-opacity="1"></path><path clip-path="url(#clip070)" d="M32.7161 954.791 L35.5806 954.791 L35.5806 981.718 Q41.6281 981.336 44.8109 978.09 Q47.9619 974.811 47.9619 968.987 Q47.9619 965.613 47.1344 962.462 Q46.3069 959.279 44.6518 956.16 L50.1899 956.16 Q51.5267 959.311 52.227 962.621 Q52.9272 965.931 52.9272 969.337 Q52.9272 977.867 47.9619 982.864 Q42.9967 987.829 34.5303 987.829 Q25.7774 987.829 20.6531 983.118 Q15.4968 978.376 15.4968 970.355 Q15.4968 963.162 20.1438 958.992 Q24.7589 954.791 32.7161 954.791 M30.9973 960.648 Q26.1912 960.711 23.3266 963.353 Q20.4621 965.963 20.4621 970.292 Q20.4621 975.193 23.2312 978.153 Q26.0002 981.081 31.0292 981.527 L30.9973 960.648 Z" fill="#000000" fill-rule="nonzero" fill-opacity="1"></path><path clip-path="url(#clip070)" d="M21.7671 921.721 L2.47896 921.721 L2.47896 915.865 L52.0042 915.865 L52.0042 921.721 L46.657 921.721 Q49.8398 923.567 51.3994 926.4 Q52.9272 929.201 52.9272 933.148 Q52.9272 939.609 47.771 943.683 Q42.6147 947.725 34.212 947.725 Q25.8093 947.725 20.6531 943.683 Q15.4968 939.609 15.4968 933.148 Q15.4968 929.201 17.0564 926.4 Q18.5842 923.567 21.7671 921.721 M34.212 941.678 Q40.6732 941.678 44.3653 939.036 Q48.0256 936.362 48.0256 931.715 Q48.0256 927.068 44.3653 924.395 Q40.6732 921.721 34.212 921.721 Q27.7508 921.721 24.0905 924.395 Q20.3984 927.068 20.3984 931.715 Q20.3984 936.362 24.0905 939.036 Q27.7508 941.678 34.212 941.678 Z" fill="#000000" fill-rule="nonzero" fill-opacity="1"></path><path clip-path="url(#clip070)" d="M10.818 866.944 L34.4666 875.665 L34.4666 858.191 L10.818 866.944 M4.48416 870.573 L4.48416 863.284 L52.0042 845.174 L52.0042 851.858 L39.8138 856.186 L39.8138 877.607 L52.0042 881.936 L52.0042 888.715 L4.48416 870.573 Z" fill="#000000" fill-rule="nonzero" fill-opacity="1"></path><path clip-path="url(#clip070)" d="M2.47896 838.49 L2.47896 832.633 L52.0042 832.633 L52.0042 838.49 L2.47896 838.49 Z" fill="#000000" fill-rule="nonzero" fill-opacity="1"></path><path clip-path="url(#clip070)" d="M46.657 814.714 L65.5631 814.714 L65.5631 820.602 L16.3562 820.602 L16.3562 814.714 L21.7671 814.714 Q18.5842 812.868 17.0564 810.067 Q15.4968 807.234 15.4968 803.319 Q15.4968 796.826 20.6531 792.784 Q25.8093 788.71 34.212 788.71 Q42.6147 788.71 47.771 792.784 Q52.9272 796.826 52.9272 803.319 Q52.9272 807.234 51.3994 810.067 Q49.8398 812.868 46.657 814.714 M34.212 794.789 Q27.7508 794.789 24.0905 797.463 Q20.3984 800.104 20.3984 804.751 Q20.3984 809.398 24.0905 812.072 Q27.7508 814.714 34.212 814.714 Q40.6732 814.714 44.3653 812.072 Q48.0256 809.398 48.0256 804.751 Q48.0256 800.104 44.3653 797.463 Q40.6732 794.789 34.212 794.789 Z" fill="#000000" fill-rule="nonzero" fill-opacity="1"></path><path clip-path="url(#clip070)" d="M30.4881 749.37 L52.0042 749.37 L52.0042 755.226 L30.679 755.226 Q25.6183 755.226 23.1038 757.2 Q20.5894 759.173 20.5894 763.12 Q20.5894 767.862 23.6131 770.599 Q26.6368 773.337 31.8567 773.337 L52.0042 773.337 L52.0042 779.225 L2.47896 779.225 L2.47896 773.337 L21.8944 773.337 Q18.6797 771.236 17.0883 768.403 Q15.4968 765.539 15.4968 761.815 Q15.4968 755.672 19.3163 752.521 Q23.1038 749.37 30.4881 749.37 Z" fill="#000000" fill-rule="nonzero" fill-opacity="1"></path><path clip-path="url(#clip070)" d="M34.0847 721.488 Q34.0847 728.586 35.7079 731.323 Q37.3312 734.06 41.2461 734.06 Q44.3653 734.06 46.2114 732.023 Q48.0256 729.954 48.0256 726.421 Q48.0256 721.552 44.5881 718.623 Q41.1188 715.663 35.3897 715.663 L34.0847 715.663 L34.0847 721.488 M31.6657 709.807 L52.0042 709.807 L52.0042 715.663 L46.5933 715.663 Q49.8398 717.668 51.3994 720.66 Q52.9272 723.652 52.9272 727.981 Q52.9272 733.455 49.8716 736.702 Q46.7843 739.917 41.6281 739.917 Q35.6125 739.917 32.5569 735.906 Q29.5014 731.864 29.5014 723.875 L29.5014 715.663 L28.9285 715.663 Q24.8862 715.663 22.6901 718.337 Q20.4621 720.979 20.4621 725.785 Q20.4621 728.84 21.1941 731.737 Q21.9262 734.633 23.3903 737.307 L17.9795 737.307 Q16.7381 734.092 16.1334 731.068 Q15.4968 728.045 15.4968 725.18 Q15.4968 717.446 19.5072 713.626 Q23.5176 709.807 31.6657 709.807 Z" fill="#000000" fill-rule="nonzero" fill-opacity="1"></path><path clip-path="url(#clip070)" d="M714.041 14.0809 L714.041 22.0612 Q709.382 19.8332 705.25 18.7395 Q701.119 17.6457 697.27 17.6457 Q690.586 17.6457 686.94 20.2383 Q683.335 22.8309 683.335 27.611 Q683.335 31.6214 685.725 33.6873 Q688.156 35.7128 694.88 36.9686 L699.822 37.9813 Q708.977 39.7232 713.312 44.1387 Q717.687 48.5136 717.687 55.8863 Q717.687 64.6767 711.772 69.2137 Q705.899 73.7508 694.516 73.7508 Q690.222 73.7508 685.36 72.7785 Q680.54 71.8063 675.355 69.9024 L675.355 61.4765 Q680.337 64.2716 685.117 65.6895 Q689.898 67.1073 694.516 67.1073 Q701.524 67.1073 705.331 64.3527 Q709.139 61.598 709.139 56.4939 Q709.139 52.0379 706.385 49.5264 Q703.671 47.0148 697.432 45.759 L692.45 44.7868 Q683.295 42.9639 679.203 39.075 Q675.112 35.1862 675.112 28.2591 Q675.112 20.2383 680.742 15.6203 Q686.414 11.0023 696.338 11.0023 Q700.592 11.0023 705.007 11.7719 Q709.423 12.5416 714.041 14.0809 Z" fill="#000000" fill-rule="nonzero" fill-opacity="1"></path><path clip-path="url(#clip070)" d="M730.123 27.2059 L737.577 27.2059 L737.577 72.576 L730.123 72.576 L730.123 27.2059 M730.123 9.54393 L737.577 9.54393 L737.577 18.9825 L730.123 18.9825 L730.123 9.54393 Z" fill="#000000" fill-rule="nonzero" fill-opacity="1"></path><path clip-path="url(#clip070)" d="M788.497 35.9153 Q791.292 30.8922 795.181 28.5022 Q799.069 26.1121 804.336 26.1121 Q811.425 26.1121 815.273 31.0947 Q819.121 36.0368 819.121 45.1919 L819.121 72.576 L811.627 72.576 L811.627 45.4349 Q811.627 38.913 809.318 35.7533 Q807.009 32.5936 802.27 32.5936 Q796.477 32.5936 793.115 36.4419 Q789.752 40.2903 789.752 46.9338 L789.752 72.576 L782.258 72.576 L782.258 45.4349 Q782.258 38.8725 779.949 35.7533 Q777.64 32.5936 772.82 32.5936 Q767.108 32.5936 763.745 36.4824 Q760.383 40.3308 760.383 46.9338 L760.383 72.576 L752.889 72.576 L752.889 27.2059 L760.383 27.2059 L760.383 34.2544 Q762.935 30.082 766.5 28.0971 Q770.065 26.1121 774.966 26.1121 Q779.909 26.1121 783.352 28.6237 Q786.836 31.1352 788.497 35.9153 Z" fill="#000000" fill-rule="nonzero" fill-opacity="1"></path><path clip-path="url(#clip070)" d="M833.218 54.671 L833.218 27.2059 L840.672 27.2059 L840.672 54.3874 Q840.672 60.8284 843.184 64.0691 Q845.695 67.2693 850.718 67.2693 Q856.754 67.2693 860.238 63.421 Q863.762 59.5726 863.762 52.9291 L863.762 27.2059 L871.216 27.2059 L871.216 72.576 L863.762 72.576 L863.762 65.6084 Q861.048 69.7404 857.443 71.7658 Q853.878 73.7508 849.139 73.7508 Q841.32 73.7508 837.269 68.8897 Q833.218 64.0286 833.218 54.671 M851.974 26.1121 L851.974 26.1121 Z" fill="#000000" fill-rule="nonzero" fill-opacity="1"></path><path clip-path="url(#clip070)" d="M886.569 9.54393 L894.023 9.54393 L894.023 72.576 L886.569 72.576 L886.569 9.54393 Z" fill="#000000" fill-rule="nonzero" fill-opacity="1"></path><path clip-path="url(#clip070)" d="M930.238 49.7694 Q921.204 49.7694 917.72 51.8354 Q914.237 53.9013 914.237 58.8839 Q914.237 62.8538 916.829 65.2034 Q919.462 67.5124 923.959 67.5124 Q930.157 67.5124 933.883 63.1374 Q937.651 58.7219 937.651 51.4303 L937.651 49.7694 L930.238 49.7694 M945.104 46.6907 L945.104 72.576 L937.651 72.576 L937.651 65.6895 Q935.099 69.8214 931.291 71.8063 Q927.483 73.7508 921.974 73.7508 Q915.006 73.7508 910.874 69.8619 Q906.783 65.9325 906.783 59.3701 Q906.783 51.7138 911.887 47.825 Q917.032 43.9361 927.199 43.9361 L937.651 43.9361 L937.651 43.2069 Q937.651 38.0623 934.248 35.2672 Q930.886 32.4315 924.769 32.4315 Q920.88 32.4315 917.194 33.3632 Q913.507 34.295 910.105 36.1584 L910.105 29.2718 Q914.196 27.692 918.044 26.9223 Q921.893 26.1121 925.539 26.1121 Q935.382 26.1121 940.243 31.2163 Q945.104 36.3204 945.104 46.6907 Z" fill="#000000" fill-rule="nonzero" fill-opacity="1"></path><path clip-path="url(#clip070)" d="M967.83 14.324 L967.83 27.2059 L983.183 27.2059 L983.183 32.9987 L967.83 32.9987 L967.83 57.6282 Q967.83 63.1779 969.329 64.7578 Q970.868 66.3376 975.527 66.3376 L983.183 66.3376 L983.183 72.576 L975.527 72.576 Q966.898 72.576 963.617 69.3758 Q960.336 66.1351 960.336 57.6282 L960.336 32.9987 L954.867 32.9987 L954.867 27.2059 L960.336 27.2059 L960.336 14.324 L967.83 14.324 Z" fill="#000000" fill-rule="nonzero" fill-opacity="1"></path><path clip-path="url(#clip070)" d="M992.986 27.2059 L1000.44 27.2059 L1000.44 72.576 L992.986 72.576 L992.986 27.2059 M992.986 9.54393 L1000.44 9.54393 L1000.44 18.9825 L992.986 18.9825 L992.986 9.54393 Z" fill="#000000" fill-rule="nonzero" fill-opacity="1"></path><path clip-path="url(#clip070)" d="M1033.62 32.4315 Q1027.62 32.4315 1024.14 37.1306 Q1020.65 41.7891 1020.65 49.9314 Q1020.65 58.0738 1024.1 62.7728 Q1027.58 67.4314 1033.62 67.4314 Q1039.57 67.4314 1043.06 62.7323 Q1046.54 58.0333 1046.54 49.9314 Q1046.54 41.8701 1043.06 37.1711 Q1039.57 32.4315 1033.62 32.4315 M1033.62 26.1121 Q1043.34 26.1121 1048.89 32.4315 Q1054.44 38.7509 1054.44 49.9314 Q1054.44 61.0714 1048.89 67.4314 Q1043.34 73.7508 1033.62 73.7508 Q1023.85 73.7508 1018.3 67.4314 Q1012.8 61.0714 1012.8 49.9314 Q1012.8 38.7509 1018.3 32.4315 Q1023.85 26.1121 1033.62 26.1121 Z" fill="#000000" fill-rule="nonzero" fill-opacity="1"></path><path clip-path="url(#clip070)" d="M1104.51 45.1919 L1104.51 72.576 L1097.05 72.576 L1097.05 45.4349 Q1097.05 38.994 1094.54 35.7938 Q1092.03 32.5936 1087.01 32.5936 Q1080.97 32.5936 1077.49 36.4419 Q1074 40.2903 1074 46.9338 L1074 72.576 L1066.51 72.576 L1066.51 27.2059 L1074 27.2059 L1074 34.2544 Q1076.68 30.163 1080.28 28.1376 Q1083.93 26.1121 1088.67 26.1121 Q1096.49 26.1121 1100.5 30.9732 Q1104.51 35.7938 1104.51 45.1919 Z" fill="#000000" fill-rule="nonzero" fill-opacity="1"></path><path clip-path="url(#clip070)" d="M1148.3 28.5427 L1148.3 35.5912 Q1145.14 33.9709 1141.74 33.1607 Q1138.33 32.3505 1134.69 32.3505 Q1129.14 32.3505 1126.34 34.0519 Q1123.59 35.7533 1123.59 39.156 Q1123.59 41.7486 1125.57 43.2475 Q1127.56 44.7058 1133.55 46.0426 L1136.1 46.6097 Q1144.04 48.3111 1147.37 51.4303 Q1150.73 54.509 1150.73 60.0587 Q1150.73 66.3781 1145.71 70.0644 Q1140.72 73.7508 1131.97 73.7508 Q1128.33 73.7508 1124.36 73.0216 Q1120.43 72.3329 1116.05 70.9151 L1116.05 63.2184 Q1120.18 65.3654 1124.19 66.4591 Q1128.21 67.5124 1132.13 67.5124 Q1137.4 67.5124 1140.24 65.73 Q1143.07 63.9071 1143.07 60.6258 Q1143.07 57.5877 1141.01 55.9673 Q1138.98 54.3469 1132.05 52.8481 L1129.46 52.2405 Q1122.53 50.7821 1119.46 47.7845 Q1116.38 44.7463 1116.38 39.4801 Q1116.38 33.0797 1120.91 29.5959 Q1125.45 26.1121 1133.8 26.1121 Q1137.93 26.1121 1141.57 26.7198 Q1145.22 27.3274 1148.3 28.5427 Z" fill="#000000" fill-rule="nonzero" fill-opacity="1"></path><path clip-path="url(#clip070)" d="M1164.5 62.2867 L1173.05 62.2867 L1173.05 72.576 L1164.5 72.576 L1164.5 62.2867 M1164.5 29.6769 L1173.05 29.6769 L1173.05 39.9662 L1164.5 39.9662 L1164.5 29.6769 Z" fill="#000000" fill-rule="nonzero" fill-opacity="1"></path><path clip-path="url(#clip070)" d="M1258.48 63.9476 L1258.48 47.7034 L1245.11 47.7034 L1245.11 40.9789 L1266.58 40.9789 L1266.58 66.9452 Q1261.84 70.3075 1256.13 72.0494 Q1250.42 73.7508 1243.94 73.7508 Q1229.76 73.7508 1221.74 65.4869 Q1213.76 57.1826 1213.76 42.3968 Q1213.76 27.5705 1221.74 19.3066 Q1229.76 11.0023 1243.94 11.0023 Q1249.85 11.0023 1255.16 12.4606 Q1260.51 13.9189 1265 16.7545 L1265 25.464 Q1260.47 21.6156 1255.36 19.6712 Q1250.26 17.7268 1244.63 17.7268 Q1233.53 17.7268 1227.94 23.9246 Q1222.39 30.1225 1222.39 42.3968 Q1222.39 54.6305 1227.94 60.8284 Q1233.53 67.0263 1244.63 67.0263 Q1248.96 67.0263 1252.37 66.2971 Q1255.77 65.5274 1258.48 63.9476 Z" fill="#000000" fill-rule="nonzero" fill-opacity="1"></path><path clip-path="url(#clip070)" d="M1320.02 48.0275 L1320.02 51.6733 L1285.75 51.6733 Q1286.23 59.3701 1290.36 63.421 Q1294.54 67.4314 1301.95 67.4314 Q1306.24 67.4314 1310.25 66.3781 Q1314.3 65.3249 1318.27 63.2184 L1318.27 70.267 Q1314.26 71.9684 1310.05 72.8596 Q1305.84 73.7508 1301.5 73.7508 Q1290.65 73.7508 1284.29 67.4314 Q1277.97 61.1119 1277.97 50.3365 Q1277.97 39.1965 1283.96 32.6746 Q1290 26.1121 1300.21 26.1121 Q1309.36 26.1121 1314.67 32.0264 Q1320.02 37.9003 1320.02 48.0275 M1312.56 45.84 Q1312.48 39.7232 1309.12 36.0774 Q1305.8 32.4315 1300.29 32.4315 Q1294.05 32.4315 1290.28 35.9558 Q1286.56 39.4801 1285.99 45.8805 L1312.56 45.84 Z" fill="#000000" fill-rule="nonzero" fill-opacity="1"></path><path clip-path="url(#clip070)" d="M1369.96 45.1919 L1369.96 72.576 L1362.51 72.576 L1362.51 45.4349 Q1362.51 38.994 1360 35.7938 Q1357.49 32.5936 1352.46 32.5936 Q1346.43 32.5936 1342.94 36.4419 Q1339.46 40.2903 1339.46 46.9338 L1339.46 72.576 L1331.97 72.576 L1331.97 27.2059 L1339.46 27.2059 L1339.46 34.2544 Q1342.13 30.163 1345.74 28.1376 Q1349.38 26.1121 1354.12 26.1121 Q1361.94 26.1121 1365.95 30.9732 Q1369.96 35.7938 1369.96 45.1919 Z" fill="#000000" fill-rule="nonzero" fill-opacity="1"></path><path clip-path="url(#clip070)" d="M1423.64 48.0275 L1423.64 51.6733 L1389.37 51.6733 Q1389.85 59.3701 1393.99 63.421 Q1398.16 67.4314 1405.57 67.4314 Q1409.86 67.4314 1413.88 66.3781 Q1417.93 65.3249 1421.9 63.2184 L1421.9 70.267 Q1417.89 71.9684 1413.67 72.8596 Q1409.46 73.7508 1405.13 73.7508 Q1394.27 73.7508 1387.91 67.4314 Q1381.59 61.1119 1381.59 50.3365 Q1381.59 39.1965 1387.58 32.6746 Q1393.62 26.1121 1403.83 26.1121 Q1412.98 26.1121 1418.29 32.0264 Q1423.64 37.9003 1423.64 48.0275 M1416.18 45.84 Q1416.1 39.7232 1412.74 36.0774 Q1409.42 32.4315 1403.91 32.4315 Q1397.67 32.4315 1393.9 35.9558 Q1390.18 39.4801 1389.61 45.8805 L1416.18 45.84 Z" fill="#000000" fill-rule="nonzero" fill-opacity="1"></path><path clip-path="url(#clip070)" d="M1462.16 34.1734 Q1460.91 33.4443 1459.41 33.1202 Q1457.95 32.7556 1456.17 32.7556 Q1449.85 32.7556 1446.44 36.8875 Q1443.08 40.9789 1443.08 48.6757 L1443.08 72.576 L1435.59 72.576 L1435.59 27.2059 L1443.08 27.2059 L1443.08 34.2544 Q1445.43 30.1225 1449.2 28.1376 Q1452.97 26.1121 1458.35 26.1121 Q1459.12 26.1121 1460.06 26.2337 Q1460.99 26.3147 1462.12 26.5172 L1462.16 34.1734 Z" fill="#000000" fill-rule="nonzero" fill-opacity="1"></path><path clip-path="url(#clip070)" d="M1490.6 49.7694 Q1481.57 49.7694 1478.08 51.8354 Q1474.6 53.9013 1474.6 58.8839 Q1474.6 62.8538 1477.19 65.2034 Q1479.82 67.5124 1484.32 67.5124 Q1490.52 67.5124 1494.25 63.1374 Q1498.01 58.7219 1498.01 51.4303 L1498.01 49.7694 L1490.6 49.7694 M1505.47 46.6907 L1505.47 72.576 L1498.01 72.576 L1498.01 65.6895 Q1495.46 69.8214 1491.65 71.8063 Q1487.84 73.7508 1482.34 73.7508 Q1475.37 73.7508 1471.24 69.8619 Q1467.14 65.9325 1467.14 59.3701 Q1467.14 51.7138 1472.25 47.825 Q1477.39 43.9361 1487.56 43.9361 L1498.01 43.9361 L1498.01 43.2069 Q1498.01 38.0623 1494.61 35.2672 Q1491.25 32.4315 1485.13 32.4315 Q1481.24 32.4315 1477.56 33.3632 Q1473.87 34.295 1470.47 36.1584 L1470.47 29.2718 Q1474.56 27.692 1478.41 26.9223 Q1482.25 26.1121 1485.9 26.1121 Q1495.74 26.1121 1500.6 31.2163 Q1505.47 36.3204 1505.47 46.6907 Z" fill="#000000" fill-rule="nonzero" fill-opacity="1"></path><path clip-path="url(#clip070)" d="M1528.19 14.324 L1528.19 27.2059 L1543.54 27.2059 L1543.54 32.9987 L1528.19 32.9987 L1528.19 57.6282 Q1528.19 63.1779 1529.69 64.7578 Q1531.23 66.3376 1535.89 66.3376 L1543.54 66.3376 L1543.54 72.576 L1535.89 72.576 Q1527.26 72.576 1523.98 69.3758 Q1520.7 66.1351 1520.7 57.6282 L1520.7 32.9987 L1515.23 32.9987 L1515.23 27.2059 L1520.7 27.2059 L1520.7 14.324 L1528.19 14.324 Z" fill="#000000" fill-rule="nonzero" fill-opacity="1"></path><path clip-path="url(#clip070)" d="M1553.35 27.2059 L1560.8 27.2059 L1560.8 72.576 L1553.35 72.576 L1553.35 27.2059 M1553.35 9.54393 L1560.8 9.54393 L1560.8 18.9825 L1553.35 18.9825 L1553.35 9.54393 Z" fill="#000000" fill-rule="nonzero" fill-opacity="1"></path><path clip-path="url(#clip070)" d="M1571.05 27.2059 L1578.95 27.2059 L1593.13 65.2844 L1607.31 27.2059 L1615.21 27.2059 L1598.19 72.576 L1588.06 72.576 L1571.05 27.2059 Z" fill="#000000" fill-rule="nonzero" fill-opacity="1"></path><path clip-path="url(#clip070)" d="M1664.3 48.0275 L1664.3 51.6733 L1630.03 51.6733 Q1630.52 59.3701 1634.65 63.421 Q1638.82 67.4314 1646.23 67.4314 Q1650.53 67.4314 1654.54 66.3781 Q1658.59 65.3249 1662.56 63.2184 L1662.56 70.267 Q1658.55 71.9684 1654.34 72.8596 Q1650.12 73.7508 1645.79 73.7508 Q1634.93 73.7508 1628.57 67.4314 Q1622.25 61.1119 1622.25 50.3365 Q1622.25 39.1965 1628.25 32.6746 Q1634.28 26.1121 1644.49 26.1121 Q1653.65 26.1121 1658.95 32.0264 Q1664.3 37.9003 1664.3 48.0275 M1656.85 45.84 Q1656.77 39.7232 1653.41 36.0774 Q1650.08 32.4315 1644.57 32.4315 Q1638.34 32.4315 1634.57 35.9558 Q1630.84 39.4801 1630.27 45.8805 L1656.85 45.84 Z" fill="#000000" fill-rule="nonzero" fill-opacity="1"></path><path clip-path="url(#clip070)" d="M1697.56 27.2059 L1705.46 27.2059 L1719.64 65.2844 L1733.82 27.2059 L1741.71 27.2059 L1724.7 72.576 L1714.57 72.576 L1697.56 27.2059 Z" fill="#000000" fill-rule="nonzero" fill-opacity="1"></path><path clip-path="url(#clip070)" d="M1780.93 28.5427 L1780.93 35.5912 Q1777.77 33.9709 1774.37 33.1607 Q1770.96 32.3505 1767.32 32.3505 Q1761.77 32.3505 1758.97 34.0519 Q1756.22 35.7533 1756.22 39.156 Q1756.22 41.7486 1758.2 43.2475 Q1760.19 44.7058 1766.18 46.0426 L1768.73 46.6097 Q1776.67 48.3111 1780 51.4303 Q1783.36 54.509 1783.36 60.0587 Q1783.36 66.3781 1778.33 70.0644 Q1773.35 73.7508 1764.6 73.7508 Q1760.96 73.7508 1756.99 73.0216 Q1753.06 72.3329 1748.68 70.9151 L1748.68 63.2184 Q1752.81 65.3654 1756.82 66.4591 Q1760.84 67.5124 1764.76 67.5124 Q1770.03 67.5124 1772.87 65.73 Q1775.7 63.9071 1775.7 60.6258 Q1775.7 57.5877 1773.64 55.9673 Q1771.61 54.3469 1764.68 52.8481 L1762.09 52.2405 Q1755.16 50.7821 1752.09 47.7845 Q1749.01 44.7463 1749.01 39.4801 Q1749.01 33.0797 1753.54 29.5959 Q1758.08 26.1121 1766.43 26.1121 Q1770.56 26.1121 1774.2 26.7198 Q1777.85 27.3274 1780.93 28.5427 Z" fill="#000000" fill-rule="nonzero" fill-opacity="1"></path><path clip-path="url(#clip070)" d="M1821.92 12.096 L1860.16 12.096 L1860.16 18.9825 L1830.11 18.9825 L1830.11 36.8875 L1858.91 36.8875 L1858.91 43.7741 L1830.11 43.7741 L1830.11 65.6895 L1860.89 65.6895 L1860.89 72.576 L1821.92 72.576 L1821.92 12.096 Z" fill="#000000" fill-rule="nonzero" fill-opacity="1"></path><path clip-path="url(#clip070)" d="M1902.94 28.5427 L1902.94 35.5912 Q1899.78 33.9709 1896.38 33.1607 Q1892.98 32.3505 1889.33 32.3505 Q1883.78 32.3505 1880.98 34.0519 Q1878.23 35.7533 1878.23 39.156 Q1878.23 41.7486 1880.22 43.2475 Q1882.2 44.7058 1888.2 46.0426 L1890.75 46.6097 Q1898.69 48.3111 1902.01 51.4303 Q1905.37 54.509 1905.37 60.0587 Q1905.37 66.3781 1900.35 70.0644 Q1895.37 73.7508 1886.62 73.7508 Q1882.97 73.7508 1879 73.0216 Q1875.07 72.3329 1870.7 70.9151 L1870.7 63.2184 Q1874.83 65.3654 1878.84 66.4591 Q1882.85 67.5124 1886.78 67.5124 Q1892.04 67.5124 1894.88 65.73 Q1897.72 63.9071 1897.72 60.6258 Q1897.72 57.5877 1895.65 55.9673 Q1893.62 54.3469 1886.7 52.8481 L1884.1 52.2405 Q1877.18 50.7821 1874.1 47.7845 Q1871.02 44.7463 1871.02 39.4801 Q1871.02 33.0797 1875.56 29.5959 Q1880.09 26.1121 1888.44 26.1121 Q1892.57 26.1121 1896.22 26.7198 Q1899.86 27.3274 1902.94 28.5427 Z" fill="#000000" fill-rule="nonzero" fill-opacity="1"></path><path clip-path="url(#clip070)" d="M1924.61 14.324 L1924.61 27.2059 L1939.97 27.2059 L1939.97 32.9987 L1924.61 32.9987 L1924.61 57.6282 Q1924.61 63.1779 1926.11 64.7578 Q1927.65 66.3376 1932.31 66.3376 L1939.97 66.3376 L1939.97 72.576 L1932.31 72.576 Q1923.68 72.576 1920.4 69.3758 Q1917.12 66.1351 1917.12 57.6282 L1917.12 32.9987 L1911.65 32.9987 L1911.65 27.2059 L1917.12 27.2059 L1917.12 14.324 L1924.61 14.324 Z" fill="#000000" fill-rule="nonzero" fill-opacity="1"></path><path clip-path="url(#clip070)" d="M1949.77 27.2059 L1957.22 27.2059 L1957.22 72.576 L1949.77 72.576 L1949.77 27.2059 M1949.77 9.54393 L1957.22 9.54393 L1957.22 18.9825 L1949.77 18.9825 L1949.77 9.54393 Z" fill="#000000" fill-rule="nonzero" fill-opacity="1"></path><path clip-path="url(#clip070)" d="M2008.14 35.9153 Q2010.94 30.8922 2014.83 28.5022 Q2018.72 26.1121 2023.98 26.1121 Q2031.07 26.1121 2034.92 31.0947 Q2038.77 36.0368 2038.77 45.1919 L2038.77 72.576 L2031.27 72.576 L2031.27 45.4349 Q2031.27 38.913 2028.96 35.7533 Q2026.66 32.5936 2021.92 32.5936 Q2016.12 32.5936 2012.76 36.4419 Q2009.4 40.2903 2009.4 46.9338 L2009.4 72.576 L2001.9 72.576 L2001.9 45.4349 Q2001.9 38.8725 1999.6 35.7533 Q1997.29 32.5936 1992.47 32.5936 Q1986.75 32.5936 1983.39 36.4824 Q1980.03 40.3308 1980.03 46.9338 L1980.03 72.576 L1972.54 72.576 L1972.54 27.2059 L1980.03 27.2059 L1980.03 34.2544 Q1982.58 30.082 1986.15 28.0971 Q1989.71 26.1121 1994.61 26.1121 Q1999.55 26.1121 2003 28.6237 Q2006.48 31.1352 2008.14 35.9153 Z" fill="#000000" fill-rule="nonzero" fill-opacity="1"></path><path clip-path="url(#clip070)" d="M2074.25 49.7694 Q2065.22 49.7694 2061.74 51.8354 Q2058.25 53.9013 2058.25 58.8839 Q2058.25 62.8538 2060.85 65.2034 Q2063.48 67.5124 2067.97 67.5124 Q2074.17 67.5124 2077.9 63.1374 Q2081.67 58.7219 2081.67 51.4303 L2081.67 49.7694 L2074.25 49.7694 M2089.12 46.6907 L2089.12 72.576 L2081.67 72.576 L2081.67 65.6895 Q2079.11 69.8214 2075.31 71.8063 Q2071.5 73.7508 2065.99 73.7508 Q2059.02 73.7508 2054.89 69.8619 Q2050.8 65.9325 2050.8 59.3701 Q2050.8 51.7138 2055.9 47.825 Q2061.05 43.9361 2071.22 43.9361 L2081.67 43.9361 L2081.67 43.2069 Q2081.67 38.0623 2078.26 35.2672 Q2074.9 32.4315 2068.78 32.4315 Q2064.9 32.4315 2061.21 33.3632 Q2057.52 34.295 2054.12 36.1584 L2054.12 29.2718 Q2058.21 27.692 2062.06 26.9223 Q2065.91 26.1121 2069.55 26.1121 Q2079.4 26.1121 2084.26 31.2163 Q2089.12 36.3204 2089.12 46.6907 Z" fill="#000000" fill-rule="nonzero" fill-opacity="1"></path><path clip-path="url(#clip070)" d="M2111.85 14.324 L2111.85 27.2059 L2127.2 27.2059 L2127.2 32.9987 L2111.85 32.9987 L2111.85 57.6282 Q2111.85 63.1779 2113.34 64.7578 Q2114.88 66.3376 2119.54 66.3376 L2127.2 66.3376 L2127.2 72.576 L2119.54 72.576 Q2110.91 72.576 2107.63 69.3758 Q2104.35 66.1351 2104.35 57.6282 L2104.35 32.9987 L2098.88 32.9987 L2098.88 27.2059 L2104.35 27.2059 L2104.35 14.324 L2111.85 14.324 Z" fill="#000000" fill-rule="nonzero" fill-opacity="1"></path><path clip-path="url(#clip070)" d="M2175.81 48.0275 L2175.81 51.6733 L2141.54 51.6733 Q2142.03 59.3701 2146.16 63.421 Q2150.33 67.4314 2157.74 67.4314 Q2162.04 67.4314 2166.05 66.3781 Q2170.1 65.3249 2174.07 63.2184 L2174.07 70.267 Q2170.06 71.9684 2165.84 72.8596 Q2161.63 73.7508 2157.3 73.7508 Q2146.44 73.7508 2140.08 67.4314 Q2133.76 61.1119 2133.76 50.3365 Q2133.76 39.1965 2139.76 32.6746 Q2145.79 26.1121 2156 26.1121 Q2165.16 26.1121 2170.46 32.0264 Q2175.81 37.9003 2175.81 48.0275 M2168.36 45.84 Q2168.27 39.7232 2164.91 36.0774 Q2161.59 32.4315 2156.08 32.4315 Q2149.84 32.4315 2146.08 35.9558 Q2142.35 39.4801 2141.78 45.8805 L2168.36 45.84 Z" fill="#000000" fill-rule="nonzero" fill-opacity="1"></path><path clip-path="url(#clip070)" d="M2217.9 34.0924 L2217.9 9.54393 L2225.35 9.54393 L2225.35 72.576 L2217.9 72.576 L2217.9 65.7705 Q2215.55 69.8214 2211.94 71.8063 Q2208.38 73.7508 2203.36 73.7508 Q2195.13 73.7508 2189.95 67.1883 Q2184.8 60.6258 2184.8 49.9314 Q2184.8 39.2371 2189.95 32.6746 Q2195.13 26.1121 2203.36 26.1121 Q2208.38 26.1121 2211.94 28.0971 Q2215.55 30.0415 2217.9 34.0924 M2192.5 49.9314 Q2192.5 58.1548 2195.86 62.8538 Q2199.26 67.5124 2205.18 67.5124 Q2211.09 67.5124 2214.5 62.8538 Q2217.9 58.1548 2217.9 49.9314 Q2217.9 41.7081 2214.5 37.0496 Q2211.09 32.3505 2205.18 32.3505 Q2199.26 32.3505 2195.86 37.0496 Q2192.5 41.7081 2192.5 49.9314 Z" fill="#000000" fill-rule="nonzero" fill-opacity="1"></path><path clip-path="url(#clip070)" d="M2287.61 20.1573 L2276.52 50.2555 L2298.75 50.2555 L2287.61 20.1573 M2283 12.096 L2292.27 12.096 L2315.32 72.576 L2306.82 72.576 L2301.31 57.061 L2274.04 57.061 L2268.53 72.576 L2259.91 72.576 L2283 12.096 Z" fill="#000000" fill-rule="nonzero" fill-opacity="1"></path><path clip-path="url(#clip070)" d="M2323.83 9.54393 L2331.28 9.54393 L2331.28 72.576 L2323.83 72.576 L2323.83 9.54393 Z" fill="#000000" fill-rule="nonzero" fill-opacity="1"></path><path clip-path="url(#clip070)" d="M2354.09 65.7705 L2354.09 89.8329 L2346.6 89.8329 L2346.6 27.2059 L2354.09 27.2059 L2354.09 34.0924 Q2356.44 30.0415 2360 28.0971 Q2363.61 26.1121 2368.59 26.1121 Q2376.86 26.1121 2382 32.6746 Q2387.19 39.2371 2387.19 49.9314 Q2387.19 60.6258 2382 67.1883 Q2376.86 73.7508 2368.59 73.7508 Q2363.61 73.7508 2360 71.8063 Q2356.44 69.8214 2354.09 65.7705 M2379.45 49.9314 Q2379.45 41.7081 2376.05 37.0496 Q2372.68 32.3505 2366.77 32.3505 Q2360.85 32.3505 2357.45 37.0496 Q2354.09 41.7081 2354.09 49.9314 Q2354.09 58.1548 2357.45 62.8538 Q2360.85 67.5124 2366.77 67.5124 Q2372.68 67.5124 2376.05 62.8538 Q2379.45 58.1548 2379.45 49.9314 Z" fill="#000000" fill-rule="nonzero" fill-opacity="1"></path><path clip-path="url(#clip070)" d="M2437.26 45.1919 L2437.26 72.576 L2429.8 72.576 L2429.8 45.4349 Q2429.8 38.994 2427.29 35.7938 Q2424.78 32.5936 2419.76 32.5936 Q2413.72 32.5936 2410.24 36.4419 Q2406.75 40.2903 2406.75 46.9338 L2406.75 72.576 L2399.26 72.576 L2399.26 9.54393 L2406.75 9.54393 L2406.75 34.2544 Q2409.43 30.163 2413.03 28.1376 Q2416.68 26.1121 2421.42 26.1121 Q2429.23 26.1121 2433.24 30.9732 Q2437.26 35.7938 2437.26 45.1919 Z" fill="#000000" fill-rule="nonzero" fill-opacity="1"></path><path clip-path="url(#clip070)" d="M2472.74 49.7694 Q2463.71 49.7694 2460.22 51.8354 Q2456.74 53.9013 2456.74 58.8839 Q2456.74 62.8538 2459.33 65.2034 Q2461.97 67.5124 2466.46 67.5124 Q2472.66 67.5124 2476.39 63.1374 Q2480.15 58.7219 2480.15 51.4303 L2480.15 49.7694 L2472.74 49.7694 M2487.61 46.6907 L2487.61 72.576 L2480.15 72.576 L2480.15 65.6895 Q2477.6 69.8214 2473.79 71.8063 Q2469.99 73.7508 2464.48 73.7508 Q2457.51 73.7508 2453.38 69.8619 Q2449.29 65.9325 2449.29 59.3701 Q2449.29 51.7138 2454.39 47.825 Q2459.54 43.9361 2469.7 43.9361 L2480.15 43.9361 L2480.15 43.2069 Q2480.15 38.0623 2476.75 35.2672 Q2473.39 32.4315 2467.27 32.4315 Q2463.38 32.4315 2459.7 33.3632 Q2456.01 34.295 2452.61 36.1584 L2452.61 29.2718 Q2456.7 27.692 2460.55 26.9223 Q2464.4 26.1121 2468.04 26.1121 Q2477.89 26.1121 2482.75 31.2163 Q2487.61 36.3204 2487.61 46.6907 Z" fill="#000000" fill-rule="nonzero" fill-opacity="1"></path><circle clip-path="url(#clip072)" cx="575.669" cy="1550.23" r="14.4" fill="#800080" fill-rule="evenodd" fill-opacity="1" stroke="#000000" stroke-opacity="1" stroke-width="4"></circle>
<circle clip-path="url(#clip072)" cx="1672.79" cy="731.017" r="14.4" fill="#800080" fill-rule="evenodd" fill-opacity="1" stroke="#000000" stroke-opacity="1" stroke-width="4"></circle>
<circle clip-path="url(#clip072)" cx="2495.62" cy="486.608" r="14.4" fill="#800080" fill-rule="evenodd" fill-opacity="1" stroke="#000000" stroke-opacity="1" stroke-width="4"></circle>
<polyline clip-path="url(#clip072)" style="stroke:#800080; stroke-linecap:round; stroke-linejoin:round; stroke-width:4; stroke-opacity:1; fill:none" points="575.669,1490.23 2495.62,406.608 "></polyline>
<path clip-path="url(#clip070)" d="M1607.93 956.792 Q1606.68 956.063 1605.18 955.739 Q1603.72 955.374 1601.94 955.374 Q1595.62 955.374 1592.22 959.506 Q1588.85 963.597 1588.85 971.294 L1588.85 995.194 L1581.36 995.194 L1581.36 949.824 L1588.85 949.824 L1588.85 956.873 Q1591.2 952.741 1594.97 950.756 Q1598.74 948.73 1604.13 948.73 Q1604.9 948.73 1605.83 948.852 Q1606.76 948.933 1607.89 949.136 L1607.93 956.792 Z" fill="#000000" fill-rule="nonzero" fill-opacity="1"></path><path clip-path="url(#clip070)" d="M1643.1 957.521 L1695.03 957.521 L1695.03 964.326 L1643.1 964.326 L1643.1 957.521 M1643.1 974.049 L1695.03 974.049 L1695.03 980.935 L1643.1 980.935 L1643.1 974.049 Z" fill="#000000" fill-rule="nonzero" fill-opacity="1"></path><path clip-path="url(#clip070)" d="M1756.56 940.102 Q1750.24 940.102 1747.04 946.34 Q1743.88 952.538 1743.88 965.015 Q1743.88 977.451 1747.04 983.69 Q1750.24 989.888 1756.56 989.888 Q1762.92 989.888 1766.08 983.69 Q1769.28 977.451 1769.28 965.015 Q1769.28 952.538 1766.08 946.34 Q1762.92 940.102 1756.56 940.102 M1756.56 933.621 Q1766.73 933.621 1772.08 941.682 Q1777.46 949.703 1777.46 965.015 Q1777.46 980.287 1772.08 988.348 Q1766.73 996.369 1756.56 996.369 Q1746.39 996.369 1741.01 988.348 Q1735.66 980.287 1735.66 965.015 Q1735.66 949.703 1741.01 941.682 Q1746.39 933.621 1756.56 933.621 Z" fill="#000000" fill-rule="nonzero" fill-opacity="1"></path><path clip-path="url(#clip070)" d="M1791.84 984.905 L1800.39 984.905 L1800.39 995.194 L1791.84 995.194 L1791.84 984.905 Z" fill="#000000" fill-rule="nonzero" fill-opacity="1"></path><path clip-path="url(#clip070)" d="M1818.46 993.939 L1818.46 986.485 Q1821.54 987.943 1824.7 988.713 Q1827.86 989.483 1830.9 989.483 Q1839 989.483 1843.25 984.054 Q1847.54 978.586 1848.15 967.486 Q1845.8 970.97 1842.2 972.833 Q1838.59 974.697 1834.22 974.697 Q1825.14 974.697 1819.84 969.228 Q1814.57 963.719 1814.57 954.199 Q1814.57 944.882 1820.08 939.251 Q1825.59 933.621 1834.74 933.621 Q1845.24 933.621 1850.74 941.682 Q1856.29 949.703 1856.29 965.015 Q1856.29 979.315 1849.49 987.862 Q1842.72 996.369 1831.26 996.369 Q1828.18 996.369 1825.02 995.761 Q1821.86 995.154 1818.46 993.939 M1834.74 968.296 Q1840.25 968.296 1843.45 964.529 Q1846.69 960.762 1846.69 954.199 Q1846.69 947.677 1843.45 943.91 Q1840.25 940.102 1834.74 940.102 Q1829.23 940.102 1825.99 943.91 Q1822.79 947.677 1822.79 954.199 Q1822.79 960.762 1825.99 964.529 Q1829.23 968.296 1834.74 968.296 Z" fill="#000000" fill-rule="nonzero" fill-opacity="1"></path><path clip-path="url(#clip070)" d="M1868.93 934.714 L1907.82 934.714 L1907.82 938.198 L1885.87 995.194 L1877.32 995.194 L1897.98 941.601 L1868.93 941.601 L1868.93 934.714 Z" fill="#000000" fill-rule="nonzero" fill-opacity="1"></path><path clip-path="url(#clip070)" d="M1923.86 934.714 L1955.99 934.714 L1955.99 941.601 L1931.36 941.601 L1931.36 956.427 Q1933.14 955.82 1934.92 955.536 Q1936.71 955.212 1938.49 955.212 Q1948.61 955.212 1954.53 960.762 Q1960.44 966.311 1960.44 975.791 Q1960.44 985.553 1954.37 990.981 Q1948.29 996.369 1937.23 996.369 Q1933.42 996.369 1929.45 995.721 Q1925.52 995.073 1921.31 993.777 L1921.31 985.553 Q1924.96 987.538 1928.85 988.51 Q1932.74 989.483 1937.07 989.483 Q1944.08 989.483 1948.17 985.796 Q1952.26 982.11 1952.26 975.791 Q1952.26 969.471 1948.17 965.785 Q1944.08 962.098 1937.07 962.098 Q1933.79 962.098 1930.51 962.828 Q1927.27 963.557 1923.86 965.096 L1923.86 934.714 Z" fill="#000000" fill-rule="nonzero" fill-opacity="1"></path><path clip-path="url(#clip070)" d="M1994.07 966.473 Q1988.23 966.473 1984.87 969.593 Q1981.55 972.712 1981.55 978.181 Q1981.55 983.649 1984.87 986.768 Q1988.23 989.888 1994.07 989.888 Q1999.9 989.888 2003.26 986.768 Q2006.62 983.609 2006.62 978.181 Q2006.62 972.712 2003.26 969.593 Q1999.94 966.473 1994.07 966.473 M1985.88 962.99 Q1980.62 961.693 1977.66 958.088 Q1974.74 954.483 1974.74 949.298 Q1974.74 942.046 1979.89 937.834 Q1985.07 933.621 1994.07 933.621 Q2003.1 933.621 2008.24 937.834 Q2013.39 942.046 2013.39 949.298 Q2013.39 954.483 2010.43 958.088 Q2007.51 961.693 2002.29 962.99 Q2008.2 964.367 2011.48 968.377 Q2014.81 972.388 2014.81 978.181 Q2014.81 986.971 2009.42 991.67 Q2004.07 996.369 1994.07 996.369 Q1984.06 996.369 1978.67 991.67 Q1973.33 986.971 1973.33 978.181 Q1973.33 972.388 1976.65 968.377 Q1979.97 964.367 1985.88 962.99 M1982.89 950.067 Q1982.89 954.766 1985.8 957.399 Q1988.76 960.032 1994.07 960.032 Q1999.33 960.032 2002.29 957.399 Q2005.29 954.766 2005.29 950.067 Q2005.29 945.368 2002.29 942.735 Q1999.33 940.102 1994.07 940.102 Q1988.76 940.102 1985.8 942.735 Q1982.89 945.368 1982.89 950.067 Z" fill="#000000" fill-rule="nonzero" fill-opacity="1"></path><path clip-path="url(#clip070)" d="M2047.86 961.693 Q2042.35 961.693 2039.11 965.461 Q2035.91 969.228 2035.91 975.791 Q2035.91 982.312 2039.11 986.12 Q2042.35 989.888 2047.86 989.888 Q2053.37 989.888 2056.57 986.12 Q2059.81 982.312 2059.81 975.791 Q2059.81 969.228 2056.57 965.461 Q2053.37 961.693 2047.86 961.693 M2064.11 936.051 L2064.11 943.505 Q2061.03 942.046 2057.87 941.277 Q2054.75 940.507 2051.67 940.507 Q2043.57 940.507 2039.27 945.976 Q2035.02 951.445 2034.41 962.504 Q2036.8 958.979 2040.41 957.116 Q2044.01 955.212 2048.35 955.212 Q2057.46 955.212 2062.73 960.762 Q2068.04 966.271 2068.04 975.791 Q2068.04 985.108 2062.53 990.738 Q2057.02 996.369 2047.86 996.369 Q2037.37 996.369 2031.82 988.348 Q2026.27 980.287 2026.27 965.015 Q2026.27 950.675 2033.08 942.168 Q2039.88 933.621 2051.35 933.621 Q2054.42 933.621 2057.54 934.228 Q2060.7 934.836 2064.11 936.051 Z" fill="#000000" fill-rule="nonzero" fill-opacity="1"></path><path clip-path="url(#clip070)" d="M2082.21 934.714 L2114.34 934.714 L2114.34 941.601 L2089.71 941.601 L2089.71 956.427 Q2091.49 955.82 2093.27 955.536 Q2095.05 955.212 2096.84 955.212 Q2106.96 955.212 2112.88 960.762 Q2118.79 966.311 2118.79 975.791 Q2118.79 985.553 2112.72 990.981 Q2106.64 996.369 2095.58 996.369 Q2091.77 996.369 2087.8 995.721 Q2083.87 995.073 2079.66 993.777 L2079.66 985.553 Q2083.31 987.538 2087.2 988.51 Q2091.09 989.483 2095.42 989.483 Q2102.43 989.483 2106.52 985.796 Q2110.61 982.11 2110.61 975.791 Q2110.61 969.471 2106.52 965.785 Q2102.43 962.098 2095.42 962.098 Q2092.14 962.098 2088.86 962.828 Q2085.62 963.557 2082.21 965.096 L2082.21 934.714 Z" fill="#000000" fill-rule="nonzero" fill-opacity="1"></path></svg>